<svg id="visual" viewBox="0 0 900 600" width="900" height="600" xmlns="http://www.w3.org/2000/svg" xmlns:xlink="http://www.w3.org/1999/xlink" version="1.1"><rect x="0" y="0" width="900" height="600" fill="#064E3B"></rect><path d="M0 468L21.5 474.2C43 480.3 86 492.7 128.8 497.5C171.7 502.3 214.3 499.7 257.2 495.7C300 491.7 343 486.3 385.8 482.2C428.7 478 471.3 475 514.2 470.7C557 466.3 600 460.7 642.8 462.2C685.7 463.7 728.3 472.3 771.2 473.8C814 475.3 857 469.7 878.5 466.8L900 464L900 601L878.5 601C857 601 814 601 771.2 601C728.3 601 685.7 601 642.8 601C600 601 557 601 514.2 601C471.3 601 428.7 601 385.8 601C343 601 300 601 257.2 601C214.3 601 171.7 601 128.8 601C86 601 43 601 21.5 601L0 601Z" fill="#aceca1"></path><path d="M0 500L21.5 496.5C43 493 86 486 128.8 482.2C171.7 478.3 214.3 477.7 257.2 481.7C300 485.7 343 494.3 385.8 499C428.7 503.7 471.3 504.3 514.2 501.3C557 498.3 600 491.7 642.8 488.5C685.7 485.3 728.3 485.7 771.2 485.7C814 485.7 857 485.3 878.5 485.2L900 485L900 601L878.5 601C857 601 814 601 771.2 601C728.3 601 685.7 601 642.8 601C600 601 557 601 514.2 601C471.3 601 428.7 601 385.8 601C343 601 300 601 257.2 601C214.3 601 171.7 601 128.8 601C86 601 43 601 21.5 601L0 601Z" fill="#b3eeab"></path><path d="M0 529L21.5 528.8C43 528.7 86 528.3 128.8 528.2C171.7 528 214.3 528 257.2 524.2C300 520.3 343 512.7 385.8 508.8C428.7 505 471.3 505 514.2 508.7C557 512.3 600 519.7 642.8 524.2C685.7 528.7 728.3 530.3 771.2 531.7C814 533 857 534 878.5 534.5L900 535L900 601L878.5 601C857 601 814 601 771.2 601C728.3 601 685.7 601 642.8 601C600 601 557 601 514.2 601C471.3 601 428.7 601 385.8 601C343 601 300 601 257.2 601C214.3 601 171.7 601 128.8 601C86 601 43 601 21.5 601L0 601Z" fill="#baefb4"></path><path d="M0 535L21.5 536C43 537 86 539 128.8 537.8C171.7 536.7 214.3 532.3 257.2 533C300 533.7 343 539.3 385.8 542.8C428.7 546.3 471.3 547.7 514.2 547.8C557 548 600 547 642.8 546.3C685.7 545.7 728.3 545.3 771.2 548.3C814 551.3 857 557.7 878.5 560.8L900 564L900 601L878.5 601C857 601 814 601 771.2 601C728.3 601 685.7 601 642.8 601C600 601 557 601 514.2 601C471.3 601 428.7 601 385.8 601C343 601 300 601 257.2 601C214.3 601 171.7 601 128.8 601C86 601 43 601 21.5 601L0 601Z" fill="#c1f1be"></path><path d="M0 556L21.5 560C43 564 86 572 128.8 572.2C171.7 572.3 214.3 564.7 257.2 563C300 561.3 343 565.7 385.8 566.8C428.7 568 471.3 566 514.2 566.7C557 567.3 600 570.7 642.8 571.8C685.7 573 728.3 572 771.2 573.2C814 574.3 857 577.7 878.5 579.3L900 581L900 601L878.5 601C857 601 814 601 771.2 601C728.3 601 685.7 601 642.8 601C600 601 557 601 514.2 601C471.3 601 428.7 601 385.8 601C343 601 300 601 257.2 601C214.3 601 171.7 601 128.8 601C86 601 43 601 21.5 601L0 601Z" fill="#c9f2c7"></path></svg>