<svg id="visual" viewBox="0 0 900 600" width="900" height="600" xmlns="http://www.w3.org/2000/svg" xmlns:xlink="http://www.w3.org/1999/xlink" version="1.1"><rect x="0" y="0" width="900" height="600" fill="#064E3B"></rect><path d="M0 478L21.5 475.2C43 472.3 86 466.7 128.8 473C171.7 479.3 214.3 497.7 257.2 505.2C300 512.7 343 509.3 385.8 507.8C428.7 506.3 471.3 506.7 514.2 492.3C557 478 600 449 642.8 445.8C685.7 442.7 728.3 465.3 771.2 477C814 488.7 857 489.3 878.5 489.7L900 490L900 601L878.5 601C857 601 814 601 771.2 601C728.3 601 685.7 601 642.8 601C600 601 557 601 514.2 601C471.3 601 428.7 601 385.8 601C343 601 300 601 257.2 601C214.3 601 171.7 601 128.8 601C86 601 43 601 21.5 601L0 601Z" fill="#C9F2C7" stroke-linecap="round" stroke-linejoin="miter"></path></svg>